<?xml version="1.0" standalone="no"?>
<!DOCTYPE svg PUBLIC "-//W3C//DTD SVG 20010904//EN"
 "http://www.w3.org/TR/2001/REC-SVG-20010904/DTD/svg10.dtd">
<svg version="1.0" xmlns="http://www.w3.org/2000/svg"
 width="275.000000pt" height="275.000000pt" viewBox="0 0 275.000000 275.000000"
 preserveAspectRatio="xMidYMid meet">
<metadata>
Created by potrace 1.11, written by Peter Selinger 2001-2013
</metadata>
<g transform="translate(0.000000,275.000000) scale(0.100000,-0.100000)"
fill="#000000" stroke="none">
<path d="M1020 2672 c-56 -25 -100 -88 -100 -143 l0 -36 -92 -6 c-145 -9 -258
-55 -343 -141 -81 -81 -98 -128 -103 -273 l-4 -123 -75 0 c-86 0 -120 -14
-160 -67 l-28 -36 0 -216 c0 -208 1 -217 23 -253 32 -52 91 -78 175 -78 l67 0
0 -84 0 -83 -62 -18 c-87 -24 -307 -105 -313 -115 -4 -7 105 -743 131 -887 l6
-33 1234 0 1233 0 6 33 c8 47 135 875 135 882 0 10 -109 55 -245 101 l-130 43
-3 81 -3 80 53 0 c67 0 128 28 159 71 24 33 24 38 24 256 0 209 -1 223 -21
250 -39 53 -81 73 -149 73 l-63 0 -4 123 c-3 105 -7 129 -28 172 -70 144 -254
245 -445 245 l-65 0 0 36 c0 43 -31 101 -68 129 -26 19 -44 20 -377 22 -192 1
-357 -1 -365 -5z"/>
</g>
</svg>
